# xmcd
#
# Track frame offsets: 
#        150
#        11441
#        21729
#        31872
#        41842
#        50622
#        58525
#        68545
#        82895
#        95905
#        106144
#        118097
#        129507
#        139361
#        152201
#        162877
#        174144
#        185010
#        194712
#        207766
#        218426
#        229326
#        240328
#        252021
#        261826
#        271771
#        280724
#        292027
#        302771
#        312663
#        321514
#        330952
#        341456
#        349023
#
# Disc length: 4770 seconds
#
# Revision: 0
# Processed by: cddbd v1.5.2PL0 Copyright (c) Steve Scherf et al.
# Submitted via: ExactAudioCopyFreeDBPlugin 1.0
#
DISCID=f212a022
DTITLE=Various Artist - Starday Custom Series #500 - 675 [CD10)
DYEAR=2017
DGENRE=Country
TTITLE0=Lou Walker - Rock And Roll (Tennessee Style)
TTITLE1=Lou Walker - I'll Always Be In Love With You
TTITLE2=Rocking Martin - Do You Still Love Me
TTITLE3=Rocking Martin - All Because Of You
TTITLE4=Hoyt Scoggins with Curley Bingham and Band - Waiting For An Answ
TTITLE4=er
TTITLE5=Hoyt Scoggins with Curley Bingham and Band - One Heart, One Love
TTITLE6=Leon Holmes - Half A Chance
TTITLE7=Leon Holmes - Lost Love
TTITLE8=David Lundy - If I Had A Nickel For Every Time Your Untrue
TTITLE9=Orangie Ray Hubbard - Sweet Love
TTITLE10=Bill Floyd - Hey Boy
TTITLE11=Bill Floyd - Heartbreak
TTITLE12=Billy Match and The Starfires - I Want My Baby
TTITLE13=Billy Match and The Starfires - Girl Of Mine
TTITLE14=Herbie Shott - You'll Cry Tomorrow
TTITLE15=Herbie Shott - Take A Tip From A Fool
TTITLE16=Gene Harper and His Saddle Pals - Thank The Lord For The Rain
TTITLE17=Gene Harper and His Saddle Pals - Jesus Is A Friend To Me
TTITLE18=Luke McDaniel - You're Still On My Mind
TTITLE19=Luke McDaniel - Homeward Mule
TTITLE20=Larry Nolen and His Bandits - King Of The Ducktail Cats
TTITLE21=Larry Nolen and His Bandits - Blue River
TTITLE22=Dave Brockman and The Twilight Ramblers - Foolish Pride
TTITLE23=Dave Brockman and The Twilight Ramblers - Feel Sorry For Me
TTITLE24=Joyce Love with Curley Sanders and His Santones - Why Did You L
TTITLE24=eave Me
TTITLE25=Joyce Love with Curley Sanders and His Santones - Peace Of Mind
TTITLE26=Lee Voorhies and His Ozark Country Boys - Load Up My Blues
TTITLE27=Lee Voorhies and His Ozark Country Boys - Hand In Hand
TTITLE28=Johnny Skiles with The Harmony Ranch Hands - The Twinkle In Y
TTITLE28=our Eyes
TTITLE29=Johnny Skiles with The Harmony Ranch Hands - Ghosts Of My Lon
TTITLE29=ely Past
TTITLE30=Billie and Gordon Hamrick - Cruel Jealous Heart
TTITLE31=Billie and Gordon Hamrick - Gypsy Waltz
TTITLE32=Frank Evans and The Top Notchers - I Got A Patent (On My Kind O
TTITLE32=f Love)
TTITLE33=Frank Evans and The Top Notchers - Lonesome Love
EXTD=
EXTT0=
EXTT1=
EXTT2=
EXTT3=
EXTT4=
EXTT5=
EXTT6=
EXTT7=
EXTT8=
EXTT9=
EXTT10=
EXTT11=
EXTT12=
EXTT13=
EXTT14=
EXTT15=
EXTT16=
EXTT17=
EXTT18=
EXTT19=
EXTT20=
EXTT21=
EXTT22=
EXTT23=
EXTT24=
EXTT25=
EXTT26=
EXTT27=
EXTT28=
EXTT29=
EXTT30=
EXTT31=
EXTT32=
EXTT33=
PLAYORDER=
